<?xml version="1.0" standalone="no"?>
<!DOCTYPE svg PUBLIC "-//W3C//DTD SVG 20010904//EN"
 "http://www.w3.org/TR/2001/REC-SVG-20010904/DTD/svg10.dtd">
<svg version="1.0" xmlns="http://www.w3.org/2000/svg"
 width="1024.000000pt" height="1024.000000pt" viewBox="0 0 1024.000000 1024.000000"
 preserveAspectRatio="xMidYMid meet">
<metadata>
Created by potrace 1.14, written by Peter Selinger 2001-2017
</metadata>
<g transform="translate(0.000000,1024.000000) scale(0.100000,-0.100000)"
fill="#000000" stroke="none">
<path d="M3195 8388 c-70 -8 -175 -44 -175 -60 0 -4 -5 -8 -10 -8 -23 0 -104
-96 -94 -111 3 -5 0 -9 -5 -9 -6 0 -11 -6 -11 -13 0 -8 -22 -26 -49 -41 -27
-14 -66 -43 -86 -63 -34 -34 -87 -122 -84 -140 1 -5 0 -10 -1 -13 -9 -23 -11
-74 -13 -270 -4 -319 8 -376 83 -426 44 -30 145 -40 200 -20 79 27 104 69 160
264 18 61 37 112 41 112 5 0 30 -12 56 -27 35 -20 62 -27 103 -27 76 -1 110
25 156 120 19 41 40 72 45 69 5 -4 17 -8 26 -10 10 -1 47 -11 83 -20 36 -10
79 -19 95 -22 36 -6 44 -17 39 -52 -2 -14 -6 -53 -8 -86 -8 -89 -16 -146 -26
-184 -5 -19 -7 -38 -4 -42 2 -4 0 -10 -5 -13 -5 -3 -12 -22 -16 -42 -18 -96
-94 -208 -164 -242 -41 -19 -119 -21 -200 -3 -101 21 -137 -8 -159 -129 -11
-57 -70 -200 -83 -200 -4 0 -10 9 -14 19 -9 28 -141 162 -198 200 -26 18 -85
51 -130 74 -111 56 -171 57 -272 7 -212 -105 -406 -363 -482 -640 -14 -53 -17
-64 -28 -120 -14 -75 -17 -194 -18 -712 0 -312 -4 -568 -9 -568 -4 0 -8 7 -8
15 0 8 -11 38 -25 67 -42 91 -155 369 -155 382 0 6 -4 16 -8 22 -4 5 -18 36
-31 69 -12 33 -27 69 -31 80 -5 11 -23 56 -41 100 -49 123 -80 163 -161 208
-44 24 -121 43 -163 40 -11 -1 -33 -3 -50 -4 -60 -5 -152 -58 -205 -117 -27
-31 -50 -61 -50 -66 0 -6 -7 -24 -16 -41 -11 -20 -16 -55 -17 -110 0 -90 4
-114 27 -167 9 -21 17 -41 17 -45 2 -11 4 -18 44 -123 20 -52 38 -102 40 -110
2 -8 22 -64 45 -125 23 -60 50 -135 62 -165 11 -30 24 -64 29 -75 5 -11 36
-96 70 -190 33 -93 66 -183 72 -200 6 -16 12 -32 13 -35 1 -6 13 -39 24 -65
65 -155 65 -154 43 -315 -2 -19 -4 -147 -5 -285 -1 -277 5 -311 72 -414 32
-50 102 -121 120 -121 5 0 10 -4 10 -9 0 -14 130 -62 182 -68 25 -3 169 -6
320 -7 l273 -1 1 -413 1 -414 -26 -10 c-14 -5 -30 -11 -36 -12 -5 -2 -17 -6
-25 -9 -8 -4 -219 -74 -468 -157 -249 -82 -465 -158 -480 -167 -63 -40 -91
-103 -92 -200 0 -62 -3 -73 -17 -74 -10 -1 -58 -2 -108 -3 -99 -2 -128 -13
-150 -56 -28 -54 2 -136 56 -150 13 -4 1817 -6 4008 -6 3178 1 3985 4 3989 14
2 6 10 12 17 12 20 0 51 95 34 106 -5 3 -9 13 -9 22 -1 36 -49 56 -135 57
l-80 1 -2 1442 -2 1442 57 1 c31 1 60 1 64 0 13 -2 79 70 73 79 -3 5 -2 11 3
13 4 3 7 97 7 209 -1 291 -5 295 -251 293 l-141 -1 0 286 c0 192 -4 293 -11
307 -7 13 -12 79 -11 174 l0 154 44 75 c70 120 100 203 111 312 10 90 -32 138
-113 129 -20 -2 -22 3 -25 56 -2 32 -2 103 0 158 3 93 5 102 25 110 34 15 60
76 47 110 -16 42 -23 47 -245 170 -27 15 -79 44 -115 65 -36 20 -86 49 -112
64 -112 61 -145 80 -180 103 -21 12 -40 23 -43 23 -2 0 -39 20 -81 45 -41 25
-78 45 -80 45 -3 0 -30 16 -60 35 -30 19 -61 35 -68 35 -8 0 -16 4 -18 8 -4 9
-74 50 -235 138 -37 20 -72 40 -78 44 -10 8 -98 56 -220 121 -66 36 -70 40
-78 81 -20 107 -153 134 -197 40 -9 -18 -15 -49 -14 -70 1 -41 -10 -62 -34
-62 -8 0 -44 -14 -79 -31 -75 -37 -186 -140 -230 -214 -29 -50 -55 -107 -55
-122 0 -4 -4 -15 -8 -24 -13 -24 -24 -106 -25 -181 0 -60 3 -71 26 -94 23 -23
34 -26 109 -27 l84 -2 2 -42 c3 -75 54 -112 125 -90 32 10 59 55 59 100 l0 34
125 1 125 0 0 -44 c0 -76 67 -121 133 -88 43 22 41 19 47 77 l5 52 88 1 c82 1
90 3 115 28 23 22 27 35 27 84 0 31 -3 78 -7 105 -4 26 -4 47 0 47 4 0 33 -16
65 -35 32 -19 60 -35 62 -35 3 0 50 -27 106 -60 55 -33 103 -60 105 -60 2 0
38 -20 80 -45 41 -25 77 -45 79 -45 2 0 100 -55 250 -141 28 -16 75 -43 106
-61 l56 -31 -1 -218 -1 -217 -54 -36 c-29 -20 -54 -36 -55 -36 -1 0 -2 67 -1
150 0 177 -5 204 -45 225 -41 21 -75 19 -107 -9 l-28 -24 -2 -149 c-1 -81 -2
-162 -2 -180 l-1 -31 -64 43 c-72 48 -154 82 -237 97 -65 13 -95 7 -128 -23
-22 -21 -23 -27 -18 -99 11 -153 108 -346 243 -485 61 -62 87 -83 158 -129 31
-20 56 -40 56 -44 0 -5 -43 -10 -96 -10 -107 -2 -136 -13 -151 -59 -5 -15 -9
-151 -8 -300 0 -178 -3 -274 -10 -276 -9 -3 -97 -2 -200 2 l-30 1 27 18 c109
72 133 247 48 355 -25 31 -89 67 -120 67 -13 0 -20 7 -20 18 0 37 -39 42 -349
42 -279 0 -300 -1 -322 -19 -23 -19 -24 -23 -25 -195 -1 -152 2 -208 18 -276
3 -12 -74 -14 -504 -15 -280 0 -508 2 -508 5 0 8 36 102 63 160 25 56 39 91
42 100 0 3 11 27 23 54 12 27 22 52 22 56 0 4 6 20 14 36 14 29 80 185 82 194
0 3 5 16 11 30 6 14 32 77 58 140 26 63 53 129 61 145 7 17 27 64 44 105 17
41 35 84 40 95 5 11 39 92 75 180 36 88 70 169 75 180 23 49 41 119 36 141
-14 53 -86 95 -138 78 -38 -11 -64 -52 -109 -163 -23 -58 -50 -125 -61 -148
-18 -42 -40 -93 -43 -103 -1 -3 -6 -16 -12 -30 -53 -124 -96 -230 -105 -255
-6 -16 -15 -34 -19 -39 -5 -6 -9 -18 -9 -28 0 -10 -5 -18 -12 -18 -6 0 -9 -3
-6 -6 5 -5 -49 -143 -72 -186 -6 -10 -10 -25 -10 -33 0 -8 -4 -15 -8 -15 -5 0
-9 -6 -9 -12 0 -7 -14 -45 -31 -85 -18 -39 -32 -76 -32 -82 0 -6 -5 -11 -11
-11 -5 0 -8 -4 -5 -8 2 -4 -2 -21 -9 -37 -12 -26 -35 -79 -40 -95 -2 -5 -12
-31 -43 -107 -9 -24 -21 -43 -27 -44 -45 -5 -239 -3 -247 2 -7 5 -8 16 -1 35
6 16 9 36 7 44 -10 50 -16 66 -40 107 -42 73 -142 165 -233 216 -46 26 -89 47
-95 47 -7 0 -16 4 -22 9 -5 5 -47 17 -93 27 -135 27 -252 11 -382 -50 -42 -20
-49 -20 -80 -8 -50 21 -49 21 -550 21 l-465 1 -49 88 c-70 124 -221 426 -223
443 -1 15 -13 56 -60 209 l-29 95 39 110 c22 60 44 113 50 116 6 4 26 3 44 -3
59 -16 169 -2 238 30 56 26 186 134 186 154 0 3 14 29 30 56 29 46 89 204 95
247 1 11 5 34 9 50 3 17 8 40 11 53 5 29 18 192 19 252 1 44 2 45 56 71 57 27
126 89 136 124 4 11 10 22 14 25 17 11 37 108 35 166 -2 70 -32 134 -78 168
-28 21 -75 25 -187 15 -84 -7 -198 22 -334 85 -176 82 -213 95 -276 102 -25 3
-49 6 -55 8 -5 1 -41 -2 -80 -6z m152 -227 c26 -11 89 -38 138 -61 130 -61
191 -82 310 -107 17 -3 69 -6 116 -7 61 -1 86 -5 86 -13 0 -7 -4 -13 -9 -13
-4 0 -8 -6 -8 -13 0 -20 -42 -53 -84 -67 -44 -14 -93 -8 -246 30 -160 39 -194
44 -237 30 -58 -19 -83 -50 -124 -157 l-8 -22 -45 25 c-68 38 -133 47 -188 25
-42 -16 -73 -74 -118 -216 -23 -71 -43 -134 -45 -140 -2 -5 -4 -1 -5 10 -2 25
-1 378 1 385 3 10 6 26 7 40 3 26 45 65 93 88 49 22 109 85 109 113 0 25 30
57 74 77 47 23 115 20 183 -7z m3825 -531 c35 -13 73 -38 103 -68 49 -48 105
-149 105 -189 l0 -23 -311 0 -311 0 7 37 c4 21 13 50 21 65 8 15 15 31 16 35
3 16 102 113 122 119 12 4 23 10 26 13 26 33 147 39 222 11z m-4524 -847 c174
-101 222 -151 324 -343 20 -36 47 -85 60 -110 14 -25 49 -90 78 -145 29 -55
65 -122 80 -150 15 -27 49 -90 75 -140 26 -49 64 -119 84 -155 20 -36 45 -83
55 -105 29 -60 56 -92 90 -106 23 -10 143 -13 501 -14 258 0 475 -3 480 -7 8
-5 12 -130 6 -184 0 -6 -16 -11 -33 -11 -31 0 -568 -12 -803 -18 -292 -7 -414
-6 -433 4 -11 6 -38 32 -60 58 -39 46 -324 412 -487 626 -44 58 -92 112 -107
121 -50 31 -116 15 -147 -34 -34 -57 -21 -90 103 -250 53 -69 133 -174 179
-233 45 -59 87 -113 92 -120 6 -7 51 -64 100 -127 141 -180 170 -211 214 -231
17 -8 31 -21 32 -29 1 -20 1 -622 0 -635 -1 -7 -157 -11 -481 -11 l-481 -1 4
881 c3 854 4 883 23 951 21 70 82 226 93 235 3 3 24 32 46 64 22 33 65 85 95
116 54 55 147 129 163 130 5 0 29 -12 55 -27z m5916 -540 c-76 -133 -219 -315
-200 -256 4 12 9 30 11 40 7 34 37 96 63 132 34 46 75 90 85 91 4 0 16 9 27
20 35 35 42 22 14 -27z m-424 -59 c38 -47 96 -144 85 -144 -2 0 0 -14 5 -32
l10 -31 -35 38 c-19 20 -35 40 -35 44 0 4 -13 21 -29 39 -17 17 -28 32 -25 32
2 0 -6 17 -19 38 -13 20 -32 52 -41 71 l-18 33 29 -17 c15 -9 48 -42 73 -71z
m358 -411 l-3 -48 -57 -2 c-32 -1 -58 3 -58 7 0 13 52 60 66 60 6 0 17 7 24
15 22 27 31 16 28 -32z m-7115 -89 c14 -14 31 -42 38 -62 7 -21 19 -53 27 -72
9 -19 16 -37 16 -40 1 -3 9 -24 18 -45 10 -22 47 -112 84 -200 36 -88 84 -203
106 -255 21 -52 47 -111 56 -130 9 -19 17 -37 17 -40 1 -3 7 -16 13 -30 63
-146 134 -333 139 -367 9 -69 -29 -139 -88 -159 -110 -36 -186 25 -215 176 -2
8 -7 23 -13 35 -11 20 -66 169 -216 585 -13 36 -39 108 -58 160 -112 305 -119
325 -114 362 5 37 44 88 77 101 39 15 88 7 113 -19z m3610 -118 c9 -1 20 -5
23 -9 4 -4 17 -7 28 -7 38 0 256 -119 256 -140 0 -3 -52 0 -114 8 l-115 15
-54 -41 c-30 -22 -60 -47 -68 -54 -25 -25 -52 -31 -151 -34 -71 -2 -98 0 -99
9 -1 7 -2 47 -3 91 -2 90 -2 90 99 126 33 12 67 24 75 27 8 3 24 8 34 10 11 2
22 6 24 8 3 3 15 2 27 -1 11 -3 29 -6 38 -8z m3517 -242 c0 -140 -3 -184 -12
-185 -19 -1 -258 -1 -290 0 l-28 1 0 185 0 184 165 0 165 0 0 -185z m-1048 54
c3 -7 4 -58 3 -113 -1 -73 -6 -110 -19 -137 l-18 -38 -93 0 c-110 0 -121 3
-141 42 -23 44 -27 81 -25 206 l1 52 144 0 c106 0 145 -3 148 -12z m213 -77
c-2 -9 -4 -20 -4 -26 -1 -5 -5 -4 -10 3 -4 7 -6 25 -3 39 3 16 7 21 12 13 4
-7 6 -20 5 -29z m-2987 -215 c3 -3 -101 -6 -231 -6 -149 0 -238 -4 -242 -10
-4 -6 -10 -8 -14 -6 -4 3 -16 -9 -27 -27 -17 -29 -19 -52 -19 -256 l0 -223 38
-33 c25 -22 45 -31 57 -28 15 4 20 0 21 -16 1 -11 2 -29 3 -38 1 -17 -18 -18
-289 -15 -160 2 -369 5 -465 5 l-175 2 0 308 c0 170 3 313 6 319 4 6 94 11
225 13 276 4 788 16 791 18 4 5 316 -2 321 -7z m4197 -215 c19 -1 20 -7 19
-82 -1 -44 -4 -82 -6 -85 -3 -3 -2873 -6 -4491 -4 l-48 0 2 83 c1 45 3 84 4
87 2 4 4434 5 4520 1z m-4214 -1116 c1 -882 1 -692 0 -1487 l-1 -663 -85 1
c-47 0 -87 3 -90 6 -4 4 -8 1625 -6 2536 l1 342 90 0 90 0 1 -735z m3621 721
c7 -20 2 -1465 -4 -1471 -7 -7 -389 -7 -396 0 -5 5 59 65 69 65 3 0 12 18 19
40 36 109 -73 186 -164 116 -32 -24 -49 -39 -148 -133 -42 -38 -40 -40 -40 46
0 26 6 47 14 52 7 4 42 31 78 59 36 28 72 57 80 63 160 126 180 147 180 191 0
51 -15 83 -49 101 -67 34 -107 13 -268 -141 -25 -24 -33 -28 -33 -15 -2 173
-6 208 -30 256 -15 31 -60 85 -116 140 -114 112 -119 115 -163 131 -29 10 -42
10 -70 -2 -18 -8 -35 -14 -37 -14 -12 0 -37 -71 -35 -99 4 -62 38 -111 177
-258 46 -48 84 -97 85 -108 2 -25 -2 -59 -7 -64 -2 -2 -31 21 -66 51 -139 119
-183 148 -230 148 -39 0 -96 -57 -92 -92 1 -12 3 -32 3 -44 1 -24 78 -104 100
-104 8 0 12 -3 8 -6 -3 -4 24 -27 61 -52 113 -76 213 -154 219 -169 5 -13 6
-40 4 -106 -1 -26 -8 -22 -117 78 -132 119 -169 138 -225 111 -39 -18 -61 -59
-57 -107 2 -26 14 -46 56 -86 l53 -52 -93 0 c-98 -1 -152 -6 -168 -16 -6 -4
-18 -21 -27 -38 -15 -29 -16 -98 -18 -677 -1 -355 -3 -649 -4 -655 -1 -11
-950 -13 -968 -2 -6 4 -14 20 -18 37 -10 44 -77 142 -121 177 -21 16 -60 39
-85 51 -40 17 -63 24 -124 38 -5 1 -50 12 -100 23 -49 12 -101 24 -115 27 -14
2 -34 8 -45 11 -11 4 -23 7 -27 8 -3 0 -9 3 -13 7 -4 3 -7 418 -7 921 0 977
-1 994 -50 1117 -28 72 -78 150 -126 198 -43 43 -125 102 -141 102 -6 0 -11 6
-12 13 -1 17 -1 108 0 129 1 16 101 17 1701 16 1209 -1 1700 -4 1702 -12z
m404 -1421 c0 -786 -1 -1435 -3 -1441 -4 -11 -151 -13 -168 -2 -7 4 -9 506 -8
1425 0 780 1 1426 2 1436 1 16 10 18 89 15 l87 -3 1 -1430z m-5459 1160 c389
-2 780 -6 868 -8 l160 -4 3 -213 c1 -123 -2 -216 -7 -219 -5 -3 -391 -6 -858
-5 l-848 1 -70 44 c-38 24 -75 48 -81 54 -6 5 -26 23 -43 38 -65 57 -122 171
-136 275 l-6 43 140 -2 c77 -2 144 0 147 4 4 3 10 4 15 2 4 -3 326 -7 716 -10z
m-1166 -279 c17 -36 51 -86 75 -113 24 -26 44 -51 44 -56 0 -4 -36 -5 -80 -3
-102 6 -152 37 -211 133 -19 30 -69 149 -69 163 0 4 24 16 53 28 29 12 68 33
87 46 l35 24 17 -79 c10 -44 32 -108 49 -143z m2853 86 c15 -22 36 -63 48 -93
21 -53 21 -63 23 -964 1 -537 -2 -912 -7 -916 -5 -3 -29 1 -54 10 l-44 16 0
992 c0 546 2 993 4 993 2 0 15 -17 30 -38z m-3135 -344 c37 -41 75 -69 128
-95 l76 -37 861 -1 c770 -1 864 -3 891 -17 35 -19 62 -63 60 -98 -1 -14 -3
-35 -3 -47 -3 -31 -51 -79 -92 -91 -23 -7 -343 -10 -950 -9 -1000 2 -934 -2
-1001 59 -69 61 -85 124 -83 323 1 83 2 157 3 165 1 8 13 -10 29 -40 15 -30
51 -80 81 -112z m2479 -1102 l-3 -970 -238 0 -237 -1 -1 50 c-2 83 -8 112 -29
151 -42 73 -41 73 -402 194 -150 50 -280 94 -288 97 -8 3 -100 34 -205 70
-104 35 -193 67 -197 71 -4 4 -7 52 -8 107 -1 120 -2 594 -1 615 1 8 1 36 1
62 l-1 47 528 0 c561 0 553 0 649 49 104 53 187 185 187 297 0 33 -3 69 -6 80
-8 29 -10 39 -8 45 0 3 60 6 131 6 l130 0 -2 -970z m3160 215 c12 -1 22 -7 22
-14 0 -22 77 -97 115 -113 40 -16 105 -18 156 -4 42 12 104 67 119 104 6 17
17 26 32 27 31 1 379 1 401 0 16 -1 17 -12 15 -128 l-3 -128 -607 0 c-472 0
-609 3 -613 12 -2 7 -4 64 -4 127 l0 115 52 3 c44 3 240 2 315 -1z m-116 -475
c-3 -5 0 -6 7 -1 13 8 959 10 967 2 6 -6 7 -174 1 -184 -4 -6 -1095 -10 -1204
-4 -21 1 -22 6 -23 64 0 34 -1 69 -1 77 -2 24 5 45 18 50 22 9 241 5 235 -4z
m-4875 -513 l-2 -197 -450 0 c-247 -1 -452 2 -455 6 -3 3 -4 27 -2 51 l4 45
71 25 c40 14 167 55 282 92 116 37 274 90 352 116 78 27 149 49 157 49 8 0 18
5 21 10 18 29 23 -18 22 -197z m311 173 c34 -14 62 -22 62 -19 0 3 6 1 13 -5
6 -6 17 -11 22 -12 15 -4 22 -6 115 -36 47 -15 91 -29 98 -30 8 -1 21 -6 30
-10 9 -4 22 -8 27 -10 34 -9 399 -135 422 -146 22 -10 28 -21 31 -52 1 -22 -2
-42 -7 -45 -11 -7 -889 -7 -896 0 -7 8 -7 367 0 379 9 14 13 13 83 -14z m5540
-216 l-3 -154 -600 -1 c-330 0 -605 1 -612 3 -8 2 -12 48 -12 148 -1 80 0 148
3 152 2 4 279 7 615 7 l611 0 -2 -155z m-3288 63 c30 -8 62 -16 70 -18 8 -2
53 -13 100 -25 47 -13 94 -24 105 -26 11 -2 47 -11 80 -20 33 -9 69 -18 80
-20 66 -12 123 -28 145 -41 33 -20 66 -63 48 -64 -7 -1 -176 -2 -375 -3 l-363
-1 -1 25 c-1 24 -1 137 0 193 1 31 0 31 111 0z"/>
<path d="M7050 7020 c-69 -12 -105 -53 -103 -116 3 -99 124 -147 195 -76 75
75 10 210 -92 192z"/>
<path d="M7115 6121 c-38 -16 -57 -79 -42 -136 3 -11 15 -42 27 -69 18 -41 21
-60 16 -113 -6 -59 -4 -66 18 -88 47 -47 120 -20 150 55 21 52 20 77 -3 147
-11 32 -22 76 -26 98 -3 22 -10 52 -16 66 -17 42 -74 60 -124 40z"/>
<path d="M7469 6119 c-29 -11 -48 -47 -50 -94 -1 -35 3 -52 29 -120 11 -27 18
-61 16 -75 -12 -97 1 -131 55 -138 93 -13 148 97 108 218 -14 41 -20 65 -32
128 -9 49 -17 63 -45 77 -33 17 -44 17 -81 4z"/>
</g>
</svg>
